PathFileType	4	(X/Y/Z)	RBDS017\RBDS017runT25.trc
DataRate	CameraRate	NumFrames	NumMarkers	Units	OrigDataRate	OrigDataStartFrame	OrigNumFrames
150.000000	150.000000	4	33	mm	150.000000	2812	4500
Frame#	Time	L.ASIS			L.Heel.Bottom			L.Heel.Lateral			L.Heel.Top			L.Iliac.Crest			L.MT1			L.MT5			L.PSIS			L.Shank.Bottom.Lateral			L.Shank.Bottom.Medial			L.Shank.Top.Lateral			L.Shank.Top.Medial			L.Thigh.Bottom.Lateral			L.Thigh.Bottom.Medial			L.Thigh.Top.Lateral			L.Thigh.Top.Medial			R.ASIS			R.ASY			R.Heel.Bottom			R.Heel.Lateral			R.Heel.Top			R.Iliac.Crest			R.MT1			R.MT5			R.PSIS			R.Shank.Bottom.Lateral			R.Shank.Bottom.Medial			R.Shank.Top.Lateral			R.Shank.Top.Medial			R.Thigh.Bottom.Lateral			R.Thigh.Bottom.Medial			R.Thigh.Top.Lateral			R.Thigh.Top.Medial			
		X1	Y1	Z1	X2	Y2	Z2	X3	Y3	Z3	X4	Y4	Z4	X5	Y5	Z5	X6	Y6	Z6	X7	Y7	Z7	X8	Y8	Z8	X9	Y9	Z9	X10	Y10	Z10	X11	Y11	Z11	X12	Y12	Z12	X13	Y13	Z13	X14	Y14	Z14	X15	Y15	Z15	X16	Y16	Z16	X17	Y17	Z17	X18	Y18	Z18	X19	Y19	Z19	X20	Y20	Z20	X21	Y21	Z21	X22	Y22	Z22	X23	Y23	Z23	X24	Y24	Z24	X25	Y25	Z25	X26	Y26	Z26	X27	Y27	Z27	X28	Y28	Z28	X29	Y29	Z29	X30	Y30	Z30	X31	Y31	Z31	X32	Y32	Z32	X33	Y33	Z33	

2813	18.74666666666667	2195.522536810184	1059.277003207918	850.284909123336	2191.486669323469	29.4422323235477	935.0756711851707	2208.457625132377	46.09542583879686	895.3424883727049	2195.752978999889	74.92151451994978	932.8241876241182	2127.304217364653	1156.397762621413	814.6135441671659	2416.128896400186	70.3668768971025	950.8560995060585	2374.180351053491	44.61300120875824	847.1750781050928	2025.942504085345	1121.27211979202	946.2966057524397	2245.349438559162	193.4065876822484	866.6321756988517	2204.429004345288	192.1142342756785	903.1461939949749	2230.507172534298	271.1590974777769	852.8520017535274	2189.711386683428	270.4564077991826	888.1589017587531	2214.629501932978	678.055417538955	820.8559825336513	2155.023167467139	654.384249906522	854.5481537485816	2165.741848003335	776.4782644406619	810.3664943624242	2110.572509996156	755.0920750902299	844.2041471870937	2199.680112776633	1046.239502975712	1129.90342250268	1642.048030457961	238.1959000417229	1086.22559547335	1598.745358490078	432.6999635263623	1040.33915940798	1607.990862653066	413.5491163422321	1086.922264200544	1642.577021620642	423.5311697073835	1054.434965105977	2166.496100171625	1146.984151158379	1162.90357205238	1624.497907062471	210.7038420106813	1036.050079546188	1580.76750062763	255.6030611731591	1132.806441461348	2033.982931581722	1119.25292188771	1049.334695002515	1735.060376745479	408.1447811502589	1122.902699309911	1725.227100671135	440.669886796551	1084.569145888549	1809.049847787498	447.806740756866	1135.677133133023	1793.940123059656	481.5287924425027	1097.423233640743	2078.218033915409	647.5163485015366	1158.994912504537	2022.780616689199	647.9087510231881	1111.37929898579	2069.039633762361	756.531369166739	1166.729666933997	2016.023954893538	757.4957338384792	1121.409897692537	
2814	18.75333333333333	2194.262532815336	1053.631653896073	849.1041085671795	2175.887916324185	28.99309707050425	935.9317097695671	2193.448712567016	46.12742348051021	896.6975840064415	2181.733599771962	74.44058291029715	934.9058750025755	2125.141009638578	1149.288866699495	814.0732873950562	2402.355647806419	63.10231762851583	953.1131236553765	2359.404269239292	41.60629302169491	848.3416092688039	2024.340427176186	1114.343322072086	946.6978716815613	2237.572060932458	190.2366020622271	869.0890811307434	2195.696564803414	190.9259414738489	904.430481083273	2226.223286055145	268.3813776440251	854.434569808458	2184.578341613359	269.6437236146755	888.659432809193	2218.649355954942	674.5918429527815	821.1544949604454	2158.991095113156	649.9998459162334	854.1685745807622	2168.483167608152	772.2624613897974	810.1574699480108	2113.145997072651	750.0456456210618	843.2572405469238	2199.361738136989	1039.750604871567	1129.15319374373	1641.927798816884	246.2633603812873	1086.007992854533	1607.616560033978	442.8354948980937	1041.996251520383	1615.806594632873	422.8342342715425	1088.344516031294	1650.808753512702	431.6370256055492	1055.960887242596	2166.047979745527	1139.463169949639	1162.64717536279	1623.17919684832	220.0081953790144	1035.443164570529	1581.50696050277	265.9093255419465	1132.653650440466	2032.727777978366	1111.568611081078	1049.461532901843	1741.952808342586	412.2810297135191	1123.842382276281	1733.081533479832	445.3957991757411	1085.764713073148	1817.241895641321	449.272899882214	1136.644296135609	1803.240471770251	483.6904885271279	1098.612860378581	2084.936140525174	640.4856383611221	1159.009720156019	2029.705062724739	639.5898857527221	1111.171032146637	2073.486539342031	749.3573176994611	1166.411558200678	2020.716681054617	749.0411519124592	1120.860664680285	
2815	18.76	2192.853717869596	1047.808295386234	847.92353497966	2159.834726247553	28.96451237427523	936.8347078961274	2177.864814010074	46.68062588869881	898.1183861870743	2167.103911401432	74.36116648350355	937.0760372161031	2122.885267014869	1141.899485423001	813.5166719679663	2387.916559583829	57.11914019816373	955.0918675524894	2343.929603141827	39.66930507554066	849.3500928908301	2022.609637596051	1107.496405463185	947.0653412887798	2229.330890697966	187.6840412336909	871.7274772797246	2186.529868842659	190.4559899758132	905.810997083768	2221.622646056365	266.1190438749691	856.2105681800082	2179.169391432785	269.4250329910485	889.2691748130767	2222.551808573916	671.1534477661086	821.5596345999484	2162.876314642949	645.6713295273289	853.9568260071769	2171.117881433759	768.0571706285413	809.9776919166658	2115.644436221291	745.0302092532261	842.3723747208277	2198.862266712152	1032.931549887881	1128.407632234913	1643.037458638872	253.8717219429009	1085.858405597474	1617.536803373938	452.2181897410054	1043.754952902856	1624.681887221221	431.4202881312909	1089.876453105931	1660.05224434979	439.077105415869	1057.574642479456	2165.529553471774	1131.393491326936	1162.409987803377	1623.099376274676	228.8965523925502	1035.016803774578	1583.512161592146	275.7059434875364	1132.693351560252	2031.250388240599	1103.840162641416	1049.465554473753	1749.655174084429	415.9787872804277	1124.805129472121	1741.740504436293	449.6234169585771	1086.976928210431	1826.104152202213	450.3897294442846	1137.62752837166	1813.19143683708	485.4330045390839	1099.800267968381	2091.722122437215	633.6773472931706	1159.009382918258	2036.70636602783	631.4374693076119	1110.97185958934	2077.91114065469	742.3305641005805	1166.013253536532	2025.421631206586	740.6997205865824	1120.222538657459	
2816	18.76666666666667	2191.314634994574	1041.892458186323	846.7337830955014	2143.559677402434	29.28190330082247	937.7435637290462	2161.9461954344	47.63681590832496	899.538812371671	2152.054499291296	74.61011457488409	939.225492378641	2120.567435274434	1134.346453279631	812.9299931168214	2372.98268962154	52.52217341702094	956.7546059277719	2327.996334806415	38.71526968039751	850.2044906042013	2020.782700952985	1100.857182529887	947.3706072535974	2220.625438170022	185.7395308885519	874.4301131833823	2176.977273585944	190.6342545592616	907.2237111802019	2216.605754873341	264.3435746334436	858.1080848662669	2173.431683849765	269.7143785516237	889.9693453038277	2226.116903474183	667.7223599341916	822.0810123464747	2166.446231993958	641.4316030052789	853.937666997092	2173.501448082223	763.8892515494376	809.8584427133153	2117.913602307402	740.1162123680119	841.600075240062	2198.158109978068	1025.899194669942	1127.691334255424	1645.472142911047	260.9444211269389	1085.749819404991	1628.25547973878	460.7725184003755	1045.622461831106	1634.435952307186	439.2366250864228	1091.529380815572	1670.103799203107	445.8283280717916	1059.263562285178	2164.857671662322	1122.916397192386	1162.209101187457	1624.357844095461	237.2754044745136	1034.757219466974	1586.85932150375	284.8250188736313	1132.935914668296	2029.575100272894	1096.247875037062	1049.323570823044	1758.112115756156	419.2718001812999	1125.768441528528	1751.126224209121	453.3867667714166	1088.181611793916	1835.585677122351	451.2240316285292	1138.591241851176	1823.721151457422	486.8204804913793	1100.949897292126	2098.583091212968	627.2121792187163	1158.990649370472	2043.791614318263	623.573508294602	1110.780143611083	2082.321895212872	735.5670756005952	1165.541575881714	2030.148113970782	732.5907751328328	1119.505415016876	
